<mxfile host="app.diagrams.net" modified="2020-12-22T09:04:56.644Z" agent="5.0 (Macintosh; Intel Mac OS X 10_15_6) AppleWebKit/605.1.15 (KHTML, like Gecko) Version/14.0.1 Safari/605.1.15" etag="mxOYlabeAFQTAzrT9Rsp" version="13.10.8" type="github">
  <diagram id="P3dRrMUD8iR9ziaAYctq" name="Page-1">
    <mxGraphModel dx="830" dy="1731" grid="1" gridSize="10" guides="1" tooltips="1" connect="1" arrows="1" fold="1" page="1" pageScale="1" pageWidth="827" pageHeight="1169" math="0" shadow="0">
      <root>
        <mxCell id="0" />
        <mxCell id="1" parent="0" />
        <mxCell id="TaZjJYPMMR-Vclr0dtE8-1" value="&lt;b style=&quot;font-size: 18px&quot;&gt;Infants with Obstructive Sleep Apnea&lt;br&gt;2010 - 2019&lt;br&gt;(n = 100)&lt;/b&gt;" style="rounded=1;whiteSpace=wrap;html=1;fillColor=#fff2cc;strokeWidth=3;" parent="1" vertex="1">
          <mxGeometry x="30" width="360" height="70" as="geometry" />
        </mxCell>
        <mxCell id="TaZjJYPMMR-Vclr0dtE8-3" value="" style="rounded=1;whiteSpace=wrap;html=1;fillColor=#fff2cc;strokeWidth=3;" parent="1" vertex="1">
          <mxGeometry x="100" y="240" width="260" height="400" as="geometry" />
        </mxCell>
        <mxCell id="TaZjJYPMMR-Vclr0dtE8-4" value="&lt;font size=&quot;4&quot;&gt;&lt;b&gt;Desaturation&amp;nbsp;&lt;/b&gt;&lt;br&gt;n=15&lt;br&gt;&lt;/font&gt;" style="rounded=1;whiteSpace=wrap;html=1;fillColor=#f8cecc;strokeWidth=3;strokeColor=#b85450;" parent="1" vertex="1">
          <mxGeometry x="130" y="430" width="200" height="50" as="geometry" />
        </mxCell>
        <mxCell id="TaZjJYPMMR-Vclr0dtE8-5" value="&lt;font size=&quot;4&quot;&gt;&lt;b&gt;Apnea/Breathing pauses&lt;/b&gt;&lt;br&gt;n=32&lt;br&gt;&lt;/font&gt;" style="rounded=1;whiteSpace=wrap;html=1;fillColor=#f8cecc;strokeWidth=3;strokeColor=#b85450;" parent="1" vertex="1">
          <mxGeometry x="130" y="350" width="200" height="70" as="geometry" />
        </mxCell>
        <mxCell id="TaZjJYPMMR-Vclr0dtE8-6" value="&lt;font size=&quot;4&quot;&gt;&lt;b&gt;Inspirator stridor&amp;nbsp;&lt;/b&gt;&lt;br&gt;n=11&lt;br&gt;&lt;/font&gt;" style="rounded=1;whiteSpace=wrap;html=1;fillColor=#f8cecc;strokeWidth=3;strokeColor=#b85450;" parent="1" vertex="1">
          <mxGeometry x="130" y="490" width="200" height="60" as="geometry" />
        </mxCell>
        <mxCell id="TaZjJYPMMR-Vclr0dtE8-7" value="&lt;font size=&quot;4&quot;&gt;&lt;b&gt;Other&lt;/b&gt;&lt;br&gt;n=19&lt;br&gt;&lt;/font&gt;" style="rounded=1;whiteSpace=wrap;html=1;fillColor=#f8cecc;strokeWidth=3;strokeColor=#b85450;" parent="1" vertex="1">
          <mxGeometry x="130" y="560" width="200" height="60" as="geometry" />
        </mxCell>
        <mxCell id="TaZjJYPMMR-Vclr0dtE8-9" value="&lt;b&gt;&lt;font style=&quot;font-size: 18px&quot;&gt;Symptoms Prior to PSG&lt;/font&gt;&lt;/b&gt;" style="text;html=1;strokeColor=none;fillColor=none;align=center;verticalAlign=middle;whiteSpace=wrap;rounded=0;" parent="1" vertex="1">
          <mxGeometry x="120" y="260" width="220" height="20" as="geometry" />
        </mxCell>
        <mxCell id="TaZjJYPMMR-Vclr0dtE8-10" value="&lt;font size=&quot;4&quot;&gt;&lt;b&gt;ALTE/SIDS in sibling&lt;/b&gt;&lt;br&gt;n=23&lt;br&gt;&lt;/font&gt;" style="rounded=1;whiteSpace=wrap;html=1;fillColor=#f8cecc;strokeWidth=3;strokeColor=#b85450;" parent="1" vertex="1">
          <mxGeometry x="130" y="290" width="200" height="50" as="geometry" />
        </mxCell>
        <mxCell id="TaZjJYPMMR-Vclr0dtE8-11" value="&lt;b&gt;Full-night PSG Performed&amp;nbsp;&lt;br&gt;(n = 11)&lt;/b&gt;" style="rounded=1;whiteSpace=wrap;html=1;fillColor=#fff2cc;strokeWidth=3;" parent="1" vertex="1">
          <mxGeometry x="100" y="90" width="280" height="60" as="geometry" />
        </mxCell>
        <mxCell id="TaZjJYPMMR-Vclr0dtE8-12" value="&lt;b&gt;Daytime recording Performed&lt;br&gt;(n = 89)&lt;/b&gt;" style="rounded=1;whiteSpace=wrap;html=1;fillColor=#fff2cc;strokeWidth=3;" parent="1" vertex="1">
          <mxGeometry x="100" y="160" width="280" height="60" as="geometry" />
        </mxCell>
        <mxCell id="t6mQ1Av1CQqwXLvDppnQ-1" value="" style="shape=flexArrow;endArrow=classic;html=1;fillColor=#ffe6cc;strokeWidth=3;" parent="1" edge="1">
          <mxGeometry width="50" height="50" relative="1" as="geometry">
            <mxPoint x="40" y="70" as="sourcePoint" />
            <mxPoint x="100" y="118" as="targetPoint" />
            <Array as="points">
              <mxPoint x="40" y="118" />
            </Array>
          </mxGeometry>
        </mxCell>
        <mxCell id="t6mQ1Av1CQqwXLvDppnQ-4" value="" style="shape=flexArrow;endArrow=classic;html=1;fillColor=#ffe6cc;strokeWidth=3;" parent="1" edge="1">
          <mxGeometry width="50" height="50" relative="1" as="geometry">
            <mxPoint x="40" y="120" as="sourcePoint" />
            <mxPoint x="100" y="188" as="targetPoint" />
            <Array as="points">
              <mxPoint x="40" y="188" />
            </Array>
          </mxGeometry>
        </mxCell>
        <mxCell id="WtVZW4URrRJd1sjvjsBa-1" value="" style="shape=flexArrow;endArrow=classic;html=1;fillColor=#ffe6cc;strokeWidth=3;" edge="1" parent="1">
          <mxGeometry width="50" height="50" relative="1" as="geometry">
            <mxPoint x="40" y="190" as="sourcePoint" />
            <mxPoint x="100" y="438" as="targetPoint" />
            <Array as="points">
              <mxPoint x="40" y="438" />
            </Array>
          </mxGeometry>
        </mxCell>
        <mxCell id="WtVZW4URrRJd1sjvjsBa-2" value="" style="rounded=1;whiteSpace=wrap;html=1;fillColor=#fff2cc;strokeWidth=3;" vertex="1" parent="1">
          <mxGeometry x="420" y="240" width="260" height="520" as="geometry" />
        </mxCell>
        <mxCell id="WtVZW4URrRJd1sjvjsBa-3" value="" style="rounded=1;whiteSpace=wrap;html=1;fillColor=#fff2cc;strokeWidth=3;" vertex="1" parent="1">
          <mxGeometry x="750" y="140" width="260" height="250" as="geometry" />
        </mxCell>
        <mxCell id="WtVZW4URrRJd1sjvjsBa-4" value="&lt;b&gt;&lt;font style=&quot;font-size: 18px&quot;&gt;Group based&amp;nbsp;&lt;/font&gt;&lt;/b&gt;" style="text;html=1;strokeColor=none;fillColor=none;align=center;verticalAlign=middle;whiteSpace=wrap;rounded=0;" vertex="1" parent="1">
          <mxGeometry x="460" y="260" width="190" height="20" as="geometry" />
        </mxCell>
        <mxCell id="WtVZW4URrRJd1sjvjsBa-5" value="&lt;font size=&quot;4&quot;&gt;&lt;b&gt;ALTE/SIDS in sibling&lt;/b&gt;&lt;br&gt;n=23&lt;br&gt;&lt;/font&gt;" style="rounded=1;whiteSpace=wrap;html=1;fillColor=#f8cecc;strokeWidth=3;strokeColor=#b85450;" vertex="1" parent="1">
          <mxGeometry x="450" y="290" width="200" height="50" as="geometry" />
        </mxCell>
        <mxCell id="WtVZW4URrRJd1sjvjsBa-6" value="&lt;font size=&quot;4&quot;&gt;&lt;b&gt;Apnea/Breathing pauses&lt;/b&gt;&lt;br&gt;n=32&lt;br&gt;&lt;/font&gt;" style="rounded=1;whiteSpace=wrap;html=1;fillColor=#f8cecc;strokeWidth=3;strokeColor=#b85450;" vertex="1" parent="1">
          <mxGeometry x="450" y="440" width="200" height="70" as="geometry" />
        </mxCell>
        <mxCell id="WtVZW4URrRJd1sjvjsBa-7" value="&lt;font size=&quot;4&quot;&gt;&lt;b&gt;Desaturation&amp;nbsp;&lt;/b&gt;&lt;br&gt;n=15&lt;br&gt;&lt;/font&gt;" style="rounded=1;whiteSpace=wrap;html=1;fillColor=#f8cecc;strokeWidth=3;strokeColor=#b85450;" vertex="1" parent="1">
          <mxGeometry x="450" y="610" width="200" height="50" as="geometry" />
        </mxCell>
        <mxCell id="WtVZW4URrRJd1sjvjsBa-8" value="&lt;font size=&quot;4&quot;&gt;&lt;b&gt;Airway anomaly&lt;/b&gt;&lt;br&gt;n=3&lt;br&gt;&lt;/font&gt;" style="rounded=1;whiteSpace=wrap;html=1;fillColor=#f8cecc;strokeWidth=3;strokeColor=#b85450;" vertex="1" parent="1">
          <mxGeometry x="450" y="360" width="200" height="60" as="geometry" />
        </mxCell>
        <mxCell id="WtVZW4URrRJd1sjvjsBa-9" value="&lt;font size=&quot;4&quot;&gt;&lt;b&gt;Genetic syndrome&lt;/b&gt;&lt;br&gt;n=10&lt;br&gt;&lt;/font&gt;" style="rounded=1;whiteSpace=wrap;html=1;fillColor=#f8cecc;strokeWidth=3;strokeColor=#b85450;" vertex="1" parent="1">
          <mxGeometry x="450" y="525" width="200" height="60" as="geometry" />
        </mxCell>
        <mxCell id="WtVZW4URrRJd1sjvjsBa-10" value="&lt;font size=&quot;4&quot;&gt;&lt;b&gt;Laryngomalacia&lt;/b&gt;&lt;br&gt;n=17&lt;br&gt;&lt;/font&gt;" style="rounded=1;whiteSpace=wrap;html=1;fillColor=#f8cecc;strokeWidth=3;strokeColor=#b85450;" vertex="1" parent="1">
          <mxGeometry x="450" y="680" width="200" height="50" as="geometry" />
        </mxCell>
        <mxCell id="WtVZW4URrRJd1sjvjsBa-12" value="" style="endArrow=classic;html=1;entryX=0;entryY=0.404;entryDx=0;entryDy=0;entryPerimeter=0;strokeWidth=6;" edge="1" parent="1" target="WtVZW4URrRJd1sjvjsBa-2">
          <mxGeometry width="50" height="50" relative="1" as="geometry">
            <mxPoint x="360" y="450" as="sourcePoint" />
            <mxPoint x="520" y="290" as="targetPoint" />
            <Array as="points">
              <mxPoint x="360" y="450" />
            </Array>
          </mxGeometry>
        </mxCell>
        <mxCell id="WtVZW4URrRJd1sjvjsBa-14" value="Supine&amp;nbsp;&lt;br&gt;(n = 97, 97%)" style="rounded=1;whiteSpace=wrap;html=1;strokeColor=#d6b656;gradientColor=#ffd966;fillColor=#FFD966;strokeWidth=3;" vertex="1" parent="1">
          <mxGeometry x="770" y="170" width="120" height="60" as="geometry" />
        </mxCell>
        <mxCell id="WtVZW4URrRJd1sjvjsBa-15" value="Side&lt;br&gt;(n = 79, 79%)" style="rounded=1;whiteSpace=wrap;html=1;strokeColor=#d6b656;gradientColor=#ffd966;fillColor=#FFD966;strokeWidth=3;" vertex="1" parent="1">
          <mxGeometry x="770" y="240" width="120" height="60" as="geometry" />
        </mxCell>
        <mxCell id="WtVZW4URrRJd1sjvjsBa-16" value="Prone&lt;br&gt;(n = 29, 29%)" style="rounded=1;whiteSpace=wrap;html=1;gradientColor=#ffd966;fillColor=#FFD966;strokeWidth=3;strokeColor=#D6B656;" vertex="1" parent="1">
          <mxGeometry x="770" y="310" width="120" height="60" as="geometry" />
        </mxCell>
        <mxCell id="WtVZW4URrRJd1sjvjsBa-19" style="edgeStyle=orthogonalEdgeStyle;rounded=0;orthogonalLoop=1;jettySize=auto;html=1;exitX=0.5;exitY=1;exitDx=0;exitDy=0;strokeWidth=6;" edge="1" parent="1" source="WtVZW4URrRJd1sjvjsBa-3" target="WtVZW4URrRJd1sjvjsBa-3">
          <mxGeometry relative="1" as="geometry" />
        </mxCell>
        <mxCell id="WtVZW4URrRJd1sjvjsBa-21" value="" style="endArrow=classic;html=1;strokeWidth=6;exitX=1;exitY=0.5;exitDx=0;exitDy=0;entryX=-0.004;entryY=0.364;entryDx=0;entryDy=0;entryPerimeter=0;" edge="1" parent="1" source="WtVZW4URrRJd1sjvjsBa-5" target="WtVZW4URrRJd1sjvjsBa-3">
          <mxGeometry width="50" height="50" relative="1" as="geometry">
            <mxPoint x="700" y="290" as="sourcePoint" />
            <mxPoint x="750" y="240" as="targetPoint" />
            <Array as="points">
              <mxPoint x="690" y="315" />
              <mxPoint x="690" y="231" />
            </Array>
          </mxGeometry>
        </mxCell>
      </root>
    </mxGraphModel>
  </diagram>
</mxfile>
